<?xml version="1.0" encoding="UTF-8" standalone="no"?>
<!-- Created with Inkscape (http://www.inkscape.org/) -->
<!-- CC0 Public Domain — Ron Kyle Almira (pixel20012) https://pixel20012.neocities.org/ -->

<svg
   width="520"
   height="2400"
   viewBox="0 0 137.58333 634.99998"
   version="1.1"
   id="svg1"
   xmlns="http://www.w3.org/2000/svg"
   xmlns:svg="http://www.w3.org/2000/svg">
  <defs
     id="defs1">
    <mask
       maskUnits="userSpaceOnUse"
       id="mask4">
      <rect
         style="fill:#ffffff;stroke:none;stroke-width:11.515"
         id="rect4"
         width="1958.9659"
         height="988.81342"
         x="1793.8643"
         y="1960.0707" />
    </mask>
  </defs>
  <g
     id="layer1">
    <path
       id="rect2"
       transform="matrix(0,0.3241506,-0.1392707,0,410.4054,-581.48217)"
       d="m 1716.0342,1814.6753 c 87.0704,41.8441 181.7239,78.2885 283.817,102.5677 102.7559,24.4367 206.5991,35.0846 316.0104,31.4584 109.7785,-3.6383 215.9607,-21.2197 325.9713,-46.4456 108.3303,-24.8407 215.4866,-55.988 319,-81.3461 105.5586,-25.8592 201.3578,-44.1695 296.4743,-49.3173 94.6914,-5.1247 177.342,3.6239 253.1347,22.9289 74.7156,19.0307 135.2257,46.5505 179.2347,69.9971 43.5808,23.2183 67.8536,39.9952 67.8536,39.9952 0.015,4.0631 0.044,12.187 0.044,12.187 -99.0479,-64.6383 -200.9214,-105.0243 -309.7862,-121.7506 -108.6158,-16.6881 -216.2683,-8.7406 -327.4044,12.0532 -108.5087,20.3023 -221.5912,53.3297 -328.4768,82.0049 -111.3735,29.8793 -212.0131,54.0092 -317.5238,67.8605 -104.0304,13.657 -199.0572,15.2437 -290.8746,6.4881 -90.7936,-8.6579 -171.7161,-26.8802 -241.7955,-47.8277 -68.8498,-20.5801 -126.8389,-43.7585 -165.5268,-60.2697 -39.3977,-16.8141 -61.1524,-27.423 -61.1524,-27.423 z m -1.9675,25.8775 c 88.6331,40.5762 185.8394,78.4745 289.5992,105.4168 104.7082,27.1885 210.1742,41.7533 320.7405,41.4571 111.0267,-0.2973 217.4688,-15.4438 327.4427,-40.0896 109.7538,-24.5965 212.9629,-56.2302 316.9464,-84.4769 104.5703,-28.406 198.7499,-50.0959 292.767,-58.4968 93.5555,-8.3596 174.9863,-2.229 250.2052,15.5312 74.1136,17.4992 134.1512,44.5659 178.1085,68.1229 43.4732,23.2975 67.7402,40.4586 67.7402,40.4586 0.015,4.0632 0.044,12.1871 0.044,12.1871 -99.0965,-66.106 -200.1857,-105.3474 -307.8922,-119.3493 -107.4028,-13.9625 -213.4913,-1.9534 -323.1047,22.3867 -105.1005,23.338 -220.6829,60.1802 -324.9429,89.2523 -110.474,30.8048 -211.3374,54.1384 -317.1874,65.787 -104.4582,11.4954 -200.7121,9.9242 -293.8126,-1.7826 -91.8933,-11.5549 -174.8855,-32.3458 -246.1283,-54.5996 -69.7271,-21.7804 -130.041,-45.6418 -169.0412,-61.7962 -40.2398,-16.668 -62.485,-26.8477 -62.485,-26.8477 z m -1.7597,23.144 c 90.0465,39.034 189.9408,78.022 295.1796,107.0748 106.5804,29.4233 213.5708,47.3411 325.2193,49.9296 112.1744,2.6008 218.8661,-10.4145 328.752,-34.5432 109.7794,-24.1055 211.796,-56.7107 314.8947,-87.1933 103.602,-30.6314 196.2234,-55.2374 289.1866,-66.4305 92.4511,-11.1314 172.7578,-7.1807 247.4244,9.3627 73.5364,16.293 133.1689,43.134 177.0755,66.9195 43.384,23.5024 67.6545,41.091 67.6545,41.091 0.015,4.0632 0.044,12.1871 0.044,12.1871 -99.1643,-67.7188 -199.5509,-106.198 -306.1641,-117.975 -106.2663,-11.7387 -210.8732,3.7487 -319.0335,31.1442 -107.0853,27.1232 -214.5981,64.6902 -321.5351,95.519 -109.6597,31.6138 -210.5736,54.2164 -316.7828,63.9544 -104.8491,9.6133 -202.2163,5.297 -296.5325,-8.9175 -92.8876,-13.9992 -177.9059,-36.9632 -250.221,-60.1892 -70.2772,-22.5713 -133.3755,-47.0766 -172.3964,-62.6662 -41.0485,-16.3997 -63.7657,-26.1064 -63.7657,-26.1064 z m -1.8411,24.2137 c 91.3674,36.9977 194.7476,77.0184 301.3514,107.9593 108.6429,31.5327 217.2821,52.7935 330.1032,58.2954 113.4002,5.5302 220.3638,-5.3071 330.1129,-28.8941 109.6612,-23.568 210.5823,-57.1969 312.5732,-89.9163 102.5219,-32.8898 193.4229,-60.4197 285.2284,-74.4062 91.2224,-13.8976 170.3314,-12.0672 244.387,3.3591 72.9007,15.1857 132.126,41.948 175.9749,66.0844 43.2966,23.8323 67.5774,41.9371 67.5774,41.9371 0.015,4.0632 0.044,12.1871 0.044,12.1871 -99.2538,-69.6527 -198.9062,-107.5683 -304.3307,-117.2239 -105.038,-9.6203 -208.0298,9.3374 -314.5987,39.7947 -105.5276,30.1597 -211.6336,70.1742 -317.7752,101.8096 -108.7884,32.4243 -209.6585,54.2517 -316.2745,62.0508 -105.2632,7.7002 -203.8065,0.6048 -299.4475,-16.0933 -93.9066,-16.3953 -181.2399,-41.5138 -254.6734,-65.5579 -70.1743,-22.977 -137.7298,-48.4814 -176.0757,-63.1026 -41.9397,-15.9914 -65.1772,-25.1222 -65.1772,-25.1222 z m -2.085,27.4225 c 91.9831,34.0073 201.4133,75.4931 308.6569,107.9726 111.0788,33.6411 221.627,58.4685 335.8155,67.1294 114.8097,8.7081 222.0891,0.2671 331.6403,-22.7014 109.4443,-22.9462 209.1584,-57.6875 309.7786,-92.8133 101.2379,-35.3413 190.1043,-66.0036 280.5494,-82.985 89.761,-16.853 167.5001,-17.2295 240.8307,-2.8897 72.1504,14.1089 130.9331,40.9482 174.7112,65.5964 43.2032,24.3246 67.5021,43.0804 67.5021,43.0804 0.015,4.0632 0.044,12.187 0.044,12.187 -99.371,-72.0787 -198.1957,-109.6075 -302.2342,-117.1056 -103.6138,-7.4676 -204.7186,15.1964 -309.423,48.935 -103.7013,33.4153 -208.1491,76.0665 -313.3424,108.5491 -107.7793,33.2811 -208.5194,54.2227 -315.6182,59.9025 -105.7353,5.6076 -205.6173,-4.5065 -302.805,-23.8365 -94.9825,-18.8914 -185.2277,-46.3187 -259.8675,-71.0399 -66.7306,-22.1017 -146.1582,-50.7915 -180.3969,-63.0447 -42.9912,-15.3855 -66.8421,-23.7753 -66.8421,-23.7753 z m -1.9856,26.1152 c 96.4916,32.2458 204.0855,72.2352 315.8323,107.0719 113.4707,35.3741 225.8529,63.3671 341.3724,74.8873 116.1634,11.5844 223.7472,5.3503 333.0785,-17.021 109.19,-22.3423 207.7566,-58.0706 307.0037,-95.3491 99.976,-37.5523 186.844,-71.0002 275.9641,-90.6574 88.3204,-19.4807 164.7534,-21.7711 237.3695,-8.3035 71.4147,13.2447 129.7926,40.2933 173.498,65.5189 43.1181,24.8867 67.4389,44.3097 67.4389,44.3097 0.015,4.0632 0.044,12.1871 0.044,12.1871 -99.4914,-74.555 -197.5342,-111.9277 -300.2289,-117.6025 -102.2392,-5.6498 -201.5123,20.3091 -304.4042,56.9699 -101.9249,36.3164 -204.7534,81.3225 -309.013,114.5343 -106.8036,34.0221 -207.3668,54.1138 -314.9364,57.8545 -106.1852,3.6926 -207.3413,-9.1563 -306.0302,-30.8069 -95.855,-21.029 -189.2558,-50.5564 -264.9057,-75.6656 -56.0477,-18.6029 -128.5642,-43.8756 -184.6118,-62.4785 -44.0213,-14.6803 -68.4717,-22.2881 -68.4717,-22.2881 z m -3.0022,39.4853 c 108.8662,30.3034 202.7943,64.4442 326.8904,104.1545 117.1674,37.4931 232.2952,69.8161 349.8623,85.3636 118.2094,15.6323 226.2533,12.5832 335.2164,-8.8614 108.7558,-21.4039 205.5902,-58.4514 302.7001,-98.6933 98.0403,-40.6275 181.8254,-77.882 268.9258,-101.2384 86.095,-23.0868 160.5741,-27.9322 232.083,-15.5126 70.2819,12.2064 128.0751,39.7656 171.6616,65.9817 42.9932,25.8592 67.3516,46.3406 67.3516,46.3406 0.015,4.0632 0.044,12.1872 0.044,12.1872 -99.6758,-78.466 -196.5542,-115.919 -297.2045,-119.2419 -100.1578,-3.3067 -196.644,27.1724 -296.778,67.8402 -107.1349,43.5111 -191.555,85.8667 -302.3999,122.6755 -105.3245,34.9755 -205.5607,53.771 -313.8492,54.7343 -106.8604,0.9506 -209.9243,-15.7494 -310.8984,-40.5512 -96.6022,-23.7279 -195.9519,-56.3931 -272.5736,-81.5534 -89.2406,-29.3041 -135.9211,-44.5419 -191.0593,-60.7506 -45.6045,-13.406 -70.9728,-19.7137 -70.9728,-19.7137 z m -2.1122,27.7791 c 108.0325,25.7625 211.4676,61.3416 334.6894,101.0777 119.7917,38.6301 236.7891,73.6519 355.8112,91.8078 119.6335,18.2491 227.9974,17.3234 336.69,-3.4469 108.4338,-20.7209 204.0648,-58.5494 299.664,-100.6424 96.6879,-42.5724 178.2945,-82.1888 263.9886,-107.8857 84.5245,-25.3461 157.6593,-31.7522 228.3826,-19.8965 69.4825,11.6477 126.8821,39.6672 170.3787,66.631 42.9059,26.5977 67.2914,47.834 67.2914,47.834 0.015,4.0632 0.044,12.187 0.044,12.187 -99.7978,-81.243 -195.8741,-118.9283 -295.0985,-120.8706 -98.7114,-1.9322 -193.2565,31.3782 -291.4717,74.5455 -103.9796,45.7007 -189.2025,90.7129 -297.7891,127.6806 -104.2992,35.508 -204.2831,53.3825 -313.0755,52.5086 -107.3285,-0.8621 -211.7092,-20.0518 -314.2777,-46.8049 -96.2606,-25.1078 -201.4796,-60.2048 -277.9237,-84.9001 -87.8085,-28.3666 -142.5428,-44.9065 -195.5749,-58.9594 -46.7185,-12.3798 -72.7293,-17.7047 -72.7293,-17.7047 z m -1.8184,23.9165 c 109.2503,22.308 216.9416,57.6748 341.3374,97.8134 122.0481,39.3811 240.5845,76.486 360.8647,96.7334 120.84,20.3415 229.475,21.1619 337.9358,0.9904 108.1555,-20.1149 202.7717,-58.5065 297.0859,-102.0249 95.5478,-44.0875 175.2931,-85.5154 259.8019,-113.0472 83.1869,-27.1012 155.1936,-34.6993 225.2438,-23.2281 68.8,11.2664 125.8716,39.7253 169.2868,67.346 42.8298,27.2484 67.2377,49.1261 67.2377,49.1261 0.015,4.0632 0.044,12.1872 0.044,12.1872 -99.892,-83.5934 -195.2919,-121.5631 -293.3097,-122.486 -97.4903,-0.9179 -190.3964,34.5912 -286.9942,79.6864 -101.7203,47.4866 -186.817,94.3448 -293.9004,131.4739 -103.4387,35.8653 -203.201,52.9397 -312.423,50.5641 -107.7249,-2.3429 -213.2151,-23.5227 -317.1331,-51.7765 -94.6092,-25.7228 -207.517,-63.5137 -282.4518,-87.2593 -88.1707,-27.9399 -146.5793,-44.4113 -199.4048,-57.0707 -47.6665,-11.423 -74.2216,-15.8671 -74.2216,-15.8671 z m -2.46,32.3545 c 111.5165,17.6623 223.5408,52.0163 350.1339,92.5748 125.0779,40.0731 245.5456,79.6277 367.535,102.473 122.432,22.9282 231.4249,25.9851 339.5839,6.6544 107.789,-19.2646 201.0793,-58.2432 293.7031,-103.4258 94.0633,-45.8848 171.3376,-89.4235 254.3002,-119.1653 81.421,-29.1891 151.956,-38.1837 221.1102,-27.1026 67.8946,10.8792 124.5375,39.9661 167.8366,68.4687 42.7239,28.1238 67.159,50.8376 67.159,50.8376 0.015,4.0632 0.044,12.1872 0.044,12.1872 -99.9967,-86.6413 -194.5063,-125.0788 -290.9386,-124.8553 -95.8891,0.2222 -186.6501,38.3454 -281.1359,85.7055 -99.0427,49.6442 -183.4293,98.5272 -288.8263,135.8024 -102.3225,36.1879 -201.7903,52.1678 -311.5839,47.8819 -108.2492,-4.2256 -215.1948,-27.8631 -320.886,-57.8798 -104.3862,-29.6462 -203.4858,-63.6615 -288.402,-89.6922 -89.3417,-27.3872 -151.1943,-43.1254 -204.4453,-54.0514 -48.9187,-10.0371 -76.1884,-13.2519 -76.1884,-13.2519 z m -1.9089,25.1051 c 113.4169,14.0141 228.2978,47.2305 356.7332,87.9214 127.4034,40.3639 249.2061,81.5167 372.5322,106.1937 123.627,24.7372 232.8892,29.4269 340.8307,10.7762 107.5205,-18.5779 199.8308,-57.8645 291.198,-104.1188 92.9734,-47.0675 168.3854,-91.9672 250.2079,-123.2036 80.1011,-30.5791 149.5455,-40.492 218.0228,-29.6246 67.2127,10.6667 123.5345,40.2459 166.7391,69.4084 42.6382,28.7802 67.0905,52.1042 67.0905,52.1042 0.015,4.0632 0.044,12.1872 0.044,12.1872 -100.0552,-88.8508 -193.8963,-127.6871 -289.1469,-126.7455 -94.6976,0.9362 -183.8687,40.7982 -276.7937,89.6352 -97.1799,51.0732 -180.8121,101.2046 -285.0839,138.4972 -101.5059,36.3035 -200.7566,51.4231 -310.9843,45.7524 -108.6449,-5.5893 -216.6767,-30.9429 -323.6897,-62.115 -105.7248,-30.7968 -206.4385,-65.3139 -292.837,-90.989 -90.4494,-26.879 -154.4017,-41.77 -208.2059,-51.3761 -49.8562,-8.9013 -77.6575,-11.1422 -77.6575,-11.1422 z m -1.7687,23.2629 c 115.1859,10.6003 232.4724,42.5564 362.6215,83.1989 129.5403,40.4523 252.4062,82.8392 376.9903,109.0722 124.6967,26.2566 234.2008,32.3774 341.9591,14.3804 107.2891,-17.9187 198.7381,-57.3695 288.9959,-104.4388 92.0234,-47.99 165.7653,-93.9313 246.5883,-126.3784 78.9283,-31.6864 147.408,-42.3264 215.2775,-31.5981 66.6015,10.5278 122.6345,40.5514 165.7481,70.2928 42.5556,29.3566 67.0199,53.2064 67.0199,53.2064 0.015,4.0632 0.044,12.1872 0.044,12.1872 -100.0882,-90.7402 -193.3296,-129.9521 -287.531,-128.4684 -93.641,1.4749 -181.4093,42.7204 -272.9616,92.7023 -95.5936,52.1884 -178.4612,103.2423 -281.8016,140.4592 -100.7957,36.3005 -199.8592,50.6134 -310.4804,43.7364 -109.0015,-6.7764 -218.0014,-33.5687 -326.188,-65.6456 -106.9139,-31.6995 -209.0599,-66.5148 -296.7742,-91.7403 -91.5231,-26.321 -157.1587,-40.2844 -211.5452,-48.6644 -50.6912,-7.8105 -78.9632,-9.1407 -78.9632,-9.1407 z m -2.3697,31.1661 c 117.4934,5.9982 237.7188,36.0099 370.1012,76.3238 132.401,40.3196 256.3223,83.965 382.6576,112.0792 126.0653,28.054 235.8802,35.9671 343.4273,18.8841 107.0132,-16.9981 197.3899,-56.4794 286.2608,-104.3642 90.8565,-48.9546 162.461,-95.9577 242.0448,-129.7621 77.4485,-32.8973 144.713,-44.3324 211.8041,-33.7173 65.8202,10.4139 121.4796,40.9937 164.4658,71.4427 42.4393,30.0615 66.9126,54.5429 66.9126,54.5429 0.015,4.0632 0.044,12.1871 0.044,12.1871 -100.0964,-92.9834 -192.5671,-132.6771 -285.4429,-130.6375 -92.307,2.0271 -178.3192,44.7825 -268.16,95.9565 -93.6646,53.352 -175.4893,105.3004 -277.7289,142.2618 -99.9253,36.1248 -198.7652,49.3409 -309.8989,40.9639 -109.4627,-8.2511 -219.6949,-36.7401 -329.3641,-69.7812 -108.4182,-32.6642 -212.3725,-67.6334 -301.7482,-92.0862 -92.9539,-25.4319 -160.5646,-37.9954 -215.7625,-44.7203 -51.749,-6.3047 -80.6133,-6.4121 -80.6133,-6.4121 z m -2.6453,34.7909 c 119.9137,0.8652 243.0812,28.4171 377.8049,68.0141 131.4126,38.6238 264.091,85.287 388.5096,114.3076 127.4944,29.7381 237.6363,39.4817 345.0035,23.4748 106.7603,-15.9164 196.0666,-55.1671 283.5457,-103.5799 85.4821,-47.3076 163.471,-99.3425 237.4499,-132.3504 75.9405,-33.8831 141.9639,-45.9767 208.2439,-35.412 65.0076,10.3618 120.2679,41.4789 163.1051,72.5995 42.3009,30.7309 66.7728,55.8007 66.7728,55.8007 0.015,4.0632 0.044,12.1872 0.044,12.1872 -100.0511,-95.0299 -191.7102,-135.1889 -283.2295,-132.735 -90.9424,2.4385 -175.1839,46.4178 -263.3097,98.4568 -91.7709,54.1915 -172.4854,106.6854 -273.6817,143.138 -99.0786,35.6897 -197.7137,47.6579 -309.3975,37.7626 -109.9525,-9.7419 -221.4637,-39.8121 -332.6503,-73.5993 -123.1585,-37.4253 -202.5928,-64.8542 -306.8378,-91.6119 -94.4708,-24.2489 -163.9906,-35.0923 -220.0726,-39.9561 -52.8346,-4.5822 -82.3008,-3.3356 -82.3008,-3.3356 z m -2.3741,31.2256 c 121.8987,-3.6938 247.4152,21.4356 384.0596,60.0879 133.3916,37.7322 267.7777,85.1244 393.2822,115.3231 128.6788,30.9626 239.094,42.1966 346.3579,27.2087 106.5911,-14.8939 195.0638,-53.6943 281.4531,-102.2327 84.3868,-47.4134 161.0219,-100.0569 233.8086,-133.6041 74.734,-34.4446 139.7572,-46.9373 205.3693,-36.3713 64.3393,10.361 119.2578,41.8579 161.9554,73.4518 42.1683,31.2022 66.6275,56.6803 66.6275,56.6803 0.015,4.0631 0.044,12.187 0.044,12.187 -99.9574,-96.3963 -190.9359,-136.8679 -281.3612,-134.2034 -89.8418,2.6474 -172.684,47.3174 -259.4655,99.7154 -90.3079,54.5272 -170.1269,107.1097 -270.5497,142.8955 -98.4434,35.0805 -196.9417,45.9054 -309.0974,34.7856 -110.3673,-10.9424 -222.9321,-42.153 -335.3424,-76.3208 -121.7197,-36.9974 -208.0215,-65.6926 -310.9426,-90.4512 -95.7156,-23.0252 -166.7225,-32.2223 -223.5404,-35.4132 -53.7114,-3.0165 -83.659,-0.5776 -83.659,-0.5776 z m -2.1845,28.7298 c 123.5404,-7.8128 250.9738,14.94 389.2078,52.4864 135.0224,36.6742 270.8204,84.4128 397.2354,115.4649 129.6796,31.8541 240.3274,44.3335 347.5504,30.3299 106.4894,-13.9078 194.3108,-52.0886 279.8435,-100.4506 83.5226,-47.2254 159.0758,-100.0834 230.8997,-133.8713 73.7594,-34.6985 137.9639,-47.4099 203.0174,-36.8212 63.7809,10.3815 118.3992,42.1222 160.9637,74.0265 42.0392,31.5105 66.4759,57.2529 66.4759,57.2529 0.015,4.0632 0.044,12.1872 0.044,12.1872 -99.8239,-97.2187 -190.2194,-137.8606 -279.7505,-135.117 -88.9413,2.7256 -170.6687,47.6994 -256.3896,100.083 -89.1647,54.488 -168.2738,106.8221 -268.1213,141.815 -97.9721,34.3357 -196.3878,44.0878 -308.9584,31.9538 -110.7262,-11.9351 -224.1767,-43.9662 -337.5873,-78.2507 -121.3233,-36.6766 -211.6886,-65.7077 -314.2989,-88.8046 -96.739,-21.7752 -168.9405,-29.3971 -226.3663,-31.0569 -54.4288,-1.5732 -84.766,1.9338 -84.766,1.9338 z m -1.5473,20.3512 c 124.5854,-10.6702 253.2323,10.3283 392.4797,46.9627 136.0602,35.796 272.7605,83.5976 399.7658,115.1237 130.3343,32.3525 241.135,45.6427 348.3629,32.3642 106.4508,-13.1823 193.8815,-50.8049 278.8977,-98.8735 82.9988,-46.9279 157.8864,-99.7397 229.1108,-133.5546 73.1527,-34.7304 136.8392,-47.5169 201.532,-36.908 63.4203,10.4002 117.8344,42.2434 160.3021,74.2877 41.9437,31.6487 66.358,57.5093 66.358,57.5093 0.015,4.0632 0.044,12.1871 0.044,12.1871 -99.7012,-97.5313 -189.7101,-138.2124 -278.6766,-135.4692 -88.3721,2.7249 -169.4156,47.7271 -254.493,99.9044 -88.4752,54.2611 -167.1584,106.231 -266.6784,140.5575 -97.7073,33.7014 -196.0913,42.681 -308.944,29.8917 -110.9663,-12.5755 -224.9938,-45.0583 -339.0357,-79.2952 -121.2691,-36.4066 -213.8149,-65.3815 -316.4191,-87.322 -97.3844,-20.8244 -170.3349,-27.306 -228.1443,-27.8914 -54.8816,-0.5557 -85.4624,3.6867 -85.4624,3.6867 z m -2.4646,32.414 c 126.0332,-15.0903 256.3613,3.0168 397.0159,37.9951 137.5024,34.1944 275.4639,81.7953 403.3118,113.8607 131.28,32.9262 242.3022,47.3883 349.5987,35.3139 106.45,-11.9792 193.385,-48.5102 277.7409,-95.8271 82.3229,-46.1765 156.3312,-98.5823 226.7489,-132.2035 72.3375,-34.5379 135.3089,-47.3195 199.4909,-36.685 62.9095,10.4236 117.0133,42.2957 159.3231,74.4149 41.7845,31.7204 66.1514,57.6438 66.1514,57.6438 0.015,4.0632 0.044,12.187 0.044,12.187 -99.4566,-97.5419 -188.8971,-138.1239 -277.0881,-135.4605 -87.5881,2.6453 -167.7316,47.3857 -251.976,98.9073 -87.5877,53.5663 -165.7387,104.6413 -264.8751,137.7279 -97.4089,32.51 -195.7906,40.2364 -309.0713,26.5073 -111.323,-13.4919 -226.1808,-46.4801 -341.0897,-80.4284 -121.343,-35.8491 -216.6038,-64.3726 -319.3359,-84.4566 -98.2643,-19.2104 -172.2456,-23.8508 -230.5754,-22.7519 -55.5036,1.0457 -86.4145,6.4161 -86.4145,6.4161 z m -2.3245,30.5719 c 127.1419,-19.0828 258.7671,-3.7846 400.5041,29.4234 138.616,32.4768 277.5614,79.5657 406.0898,111.9074 132.0592,33.2302 243.2634,48.6686 350.6966,37.786 106.5202,-10.7901 193.1343,-46.0671 277.0573,-92.3618 81.8703,-45.1625 155.2605,-96.8217 225.0905,-130.0072 71.7455,-34.0957 134.17,-46.7467 197.9457,-36.1113 62.5027,10.4231 116.3311,42.157 158.4884,74.1692 41.6268,31.6093 65.9356,57.4447 65.9356,57.4447 0.015,4.0632 0.044,12.1871 0.044,12.1871 -99.1703,-96.9788 -188.1305,-137.2636 -275.7344,-134.7435 -86.9914,2.5025 -166.5067,46.6673 -250.1881,97.2157 -86.9915,52.5478 -164.8174,102.4348 -263.7488,134.1536 -97.2703,31.1864 -195.7055,37.7043 -309.3651,23.1994 -111.6279,-14.2455 -227.1685,-47.48 -342.7326,-80.9301 -121.4605,-35.1569 -218.6776,-62.9377 -321.552,-81.2334 -98.9175,-17.592 -173.6907,-20.4851 -232.4021,-17.8391 -55.9738,2.5227 -87.1293,8.901 -87.1293,8.901 z m -2.2928,30.156 c 127.9811,-22.8245 260.6073,-10.3463 403.17,20.9416 139.4727,30.6098 279.1873,76.9068 408.2748,109.3136 132.7181,33.3182 244.0735,49.6034 351.7123,39.9506 106.6589,-9.5649 193.0992,-43.3977 276.7809,-88.3967 81.6048,-43.8822 154.5918,-94.4741 224.0118,-127.0049 71.3355,-33.4284 133.3446,-45.8469 196.7943,-35.2487 62.1757,10.3854 115.7497,41.8121 157.7538,73.54 41.4647,31.3203 65.7034,56.9232 65.7034,56.9232 0.015,4.0632 0.044,12.1872 0.044,12.1872 -98.8359,-95.8593 -187.3772,-135.635 -274.5434,-133.2989 -86.5424,2.3194 -165.6535,45.6252 -248.9962,94.8936 -86.6346,51.2145 -164.318,99.6167 -263.1961,129.803 -97.2725,29.6961 -195.8143,34.9958 -309.8231,19.8236 -111.8962,-14.8912 -228.0153,-48.1632 -344.0658,-80.9236 -121.5433,-34.3111 -220.2603,-61.1194 -323.2162,-77.613 -99.3865,-15.9218 -174.7714,-17.0989 -233.7491,-12.9777 -56.3239,3.9359 -87.6559,11.2482 -87.6559,11.2482 z m -2.0308,26.7094 c 128.5086,-25.9551 261.789,-15.9938 404.8775,13.4695 140.0275,28.8331 280.2536,74.2085 409.7415,106.5131 133.2097,33.2331 244.6732,50.178 352.5541,41.6595 106.8402,-8.4363 193.2459,-40.8242 276.8705,-84.4476 81.5218,-42.5265 154.3255,-91.9126 223.5254,-123.6915 71.1196,-32.6605 132.8649,-44.8006 196.0902,-34.279 61.9494,10.3093 115.3126,41.3137 157.1797,72.6353 41.3161,30.9094 65.4822,56.1829 65.4822,56.1829 0.015,4.0632 0.044,12.1871 0.044,12.1871 -98.4977,-94.3895 -186.715,-133.5206 -273.6131,-131.365 -86.2623,2.1399 -165.1967,44.4624 -248.4206,92.348 -86.5107,49.7767 -164.2206,96.6176 -263.1742,125.2998 -97.3903,28.2292 -196.0713,32.4276 -310.3684,16.7384 -112.1043,-15.3881 -228.6595,-48.5358 -345.0044,-80.5354 -121.5541,-33.4324 -221.3081,-59.215 -324.2521,-74.0862 -99.6528,-14.3958 -175.4412,-14.0723 -234.5604,-8.6951 -56.5381,5.1424 -87.9724,13.2273 -87.9724,13.2273 z m -2.3381,30.7502 c 128.8625,-29.325 262.6259,-22.2582 406.0782,4.9853 140.4275,26.6691 281.0431,70.751 410.8808,102.7684 133.6684,32.9621 245.2235,50.5697 353.4537,43.4094 107.117,-7.0866 193.6212,-37.6279 277.3632,-79.4172 81.6036,-40.7222 154.3997,-88.4371 223.5139,-119.169 71.044,-31.5901 132.6067,-43.3417 195.65,-32.9727 61.7643,10.1587 114.9023,40.4935 156.611,71.1628 41.14,30.2511 65.2108,54.9995 65.2108,54.9995 0.015,4.0632 0.044,12.1872 0.044,12.1872 -98.0618,-92.1352 -185.9623,-130.2837 -272.692,-128.3352 -86.0771,1.9338 -165.0205,42.8904 -248.3184,88.9162 -86.5893,47.8444 -164.5114,92.6197 -263.6918,119.4081 -97.6603,26.3777 -196.5528,29.2819 -311.1568,13.0749 -112.3056,-15.882 -229.2798,-48.7204 -345.8016,-79.6881 -121.4689,-32.2825 -222.1253,-56.7266 -324.9336,-69.7107 -99.7842,-12.6022 -175.8788,-10.5879 -235.0499,-3.8332 -56.6725,6.4695 -88.162,15.3754 -88.162,15.3754 z m -1.7823,23.4411 c 128.9502,-31.7127 262.8895,-26.8335 406.4452,-1.3503 139.2165,24.7129 282.9151,68.2838 411.3549,99.5864 133.9419,32.6436 245.5409,50.693 354.0883,44.6053 107.3762,-6.022 194.0537,-35.0313 278.0161,-75.2539 81.793,-39.1833 154.7288,-85.4357 223.8979,-115.253 71.1108,-30.6543 132.6208,-42.0726 195.5813,-31.8748 61.6778,9.9901 114.6569,39.6782 156.2454,69.7152 41.0027,29.6139 64.993,53.857 64.993,53.857 0.015,4.0632 0.044,12.1872 0.044,12.1872 -97.6982,-90.0122 -185.3979,-127.2301 -272.1004,-125.4249 -86.0346,1.7914 -165.137,41.557 -248.6412,85.9891 -86.8055,46.1887 -165.0212,89.2105 -264.4726,114.4451 -97.9612,24.8565 -197.051,26.7548 -311.8705,10.202 -112.4281,-16.2081 -229.6682,-48.7046 -346.2055,-78.7869 -121.324,-31.3179 -222.4809,-54.6479 -325.0883,-66.1891 -99.7585,-11.2208 -175.9753,-7.9531 -235.1058,-0.2035 -56.695,7.4303 -88.1823,16.9103 -88.1823,16.9103 z m -1.4479,19.0439 c 128.9066,-33.5308 262.8681,-30.4071 406.3981,-6.3867 139.5365,23.352 282.6295,65.7668 411.4908,96.8216 134.1163,32.3213 245.7329,50.6932 354.5703,45.5003 107.6169,-5.1346 194.4967,-32.8252 278.7205,-71.6751 82.0265,-37.8364 155.1675,-82.7904 224.457,-111.7988 71.2441,-29.8267 132.7655,-40.9575 195.6945,-30.9386 61.6427,9.8141 114.501,38.8881 155.9925,68.3246 40.8897,29.0095 64.8097,52.7753 64.8097,52.7753 0.015,4.0632 0.044,12.1871 0.044,12.1871 -97.3844,-88.0313 -184.9474,-124.3733 -271.6917,-122.6668 -86.0623,1.693 -165.3898,40.4072 -249.1555,83.4431 -87.0785,44.7379 -165.617,86.2302 -265.3486,110.1368 -98.2651,23.555 -197.5373,24.6238 -312.5198,7.817 -112.5052,-16.4447 -229.9326,-48.6043 -346.4051,-77.9126 -121.1516,-30.4857 -222.6054,-52.8619 -324.9844,-63.2343 -99.6583,-10.0966 -175.9053,-5.8386 -234.9522,2.6809 -56.663,8.1755 -88.1207,18.0874 -88.1207,18.0874 z m -2.7809,36.5737 c 128.5406,-36.7012 262.2482,-36.8687 405.4577,-15.7097 139.7293,20.6448 281.7457,60.7405 411.1362,91.1451 134.3347,31.5664 245.9349,50.4774 355.4099,47.0607 108.1521,-3.3753 195.57,-28.362 280.4984,-64.348 82.6705,-35.0292 156.431,-77.2414 226.1394,-104.557 71.6954,-28.0943 133.3712,-38.6502 196.3305,-29.0879 61.6633,9.3656 114.3107,37.0333 155.6197,65.0986 40.6698,27.631 64.4444,50.3142 64.4444,50.3142 0.015,4.0632 0.044,12.1871 0.044,12.1871 -96.7399,-83.5935 -184.1068,-117.9423 -271.0905,-116.3587 -86.2692,1.5706 -166.2664,38.089 -250.7635,78.2198 -87.8381,41.7175 -167.2077,80.0355 -267.6211,101.2403 -98.9927,20.9047 -198.6686,20.3491 -313.9332,3.11 -112.5862,-16.8384 -230.3235,-48.2284 -346.4696,-75.9362 -120.6787,-28.789 -222.4487,-49.2403 -324.2215,-57.3944 -99.2704,-7.9537 -175.4077,-1.877 -234.1698,8.0163 -56.4782,9.5087 -87.8115,20.1608 -87.8115,20.1608 z m -1.6738,22.015 c 128.1463,-38.3979 261.5193,-40.4794 404.3685,-21.0561 139.6167,18.9837 280.9748,57.6252 410.5418,87.5515 134.3953,31.0415 245.9503,50.234 355.8595,47.9223 108.5184,-2.2825 196.3515,-25.5438 281.8282,-59.677 83.1782,-33.2154 157.4504,-73.6399 227.5266,-99.8651 72.0887,-26.9784 133.9383,-37.1868 196.9734,-27.9783 61.7313,9.0179 114.2651,35.6943 155.4677,62.7967 40.5366,26.6644 64.2177,48.5928 64.2177,48.5928 0.015,4.0632 0.044,12.1871 0.044,12.1871 -96.3291,-80.5296 -183.62,-113.4771 -270.8467,-111.9105 -86.4886,1.5533 -167.0358,36.6608 -252.1133,74.9225 -88.4374,39.7727 -168.4403,76.048 -269.349,95.5399 -99.518,19.2233 -199.4688,17.6701 -314.883,0.1978 -112.5818,-17.0435 -230.4965,-47.9114 -346.3108,-74.5985 -120.3034,-27.7215 -222.1139,-46.973 -323.416,-53.8209 -98.9168,-6.6867 -174.8861,0.4237 -233.4003,11.0727 -56.2914,10.2444 -87.5088,21.2841 -87.5088,21.2841 z m -2.5098,33.0082 c 127.3225,-40.633 259.9503,-45.4632 402.0335,-28.6269 139.1683,16.4909 279.4686,52.8917 409.1358,82.014 134.393,30.1838 245.8236,49.7517 356.4531,49.1451 109.1249,-0.5983 197.7018,-21.1542 284.1665,-52.3572 84.0998,-30.3496 159.3256,-67.937 230.1094,-92.4568 72.8443,-25.2336 135.0611,-34.9408 198.2908,-26.3867 61.9105,8.3756 114.2925,33.3611 155.3427,58.8301 40.3371,25.0264 63.8714,45.6826 63.8714,45.6826 0.015,4.0631 0.044,12.187 0.044,12.187 -95.6878,-75.4043 -182.9237,-105.9613 -270.6496,-104.316 -86.9454,1.6307 -168.517,34.5379 -254.65,69.8662 -89.5214,36.718 -170.6585,69.7774 -272.4176,86.5974 -100.4199,16.5987 -200.8245,13.5217 -316.4338,-4.2772 -112.481,-17.3172 -230.8899,-47.3966 -345.8042,-72.4565 -119.6148,-26.0849 -221.2927,-43.5106 -321.7442,-48.4618 -98.2257,-4.8414 -173.8083,3.7198 -231.8484,15.3943 -55.9107,11.2461 -86.8998,22.7834 -86.8998,22.7834 z m -2.7401,36.0388 c 126.1249,-42.6398 257.6267,-50.2686 398.5822,-36.187 138.3381,13.82 277.3509,47.7358 406.9328,75.9084 134.2745,29.1927 245.4797,49.1268 356.9888,50.4456 109.8573,1.2993 199.4006,-16.1703 287.1556,-44.0092 85.3111,-27.0636 161.8176,-61.393 233.5761,-83.9992 73.887,-23.2768 136.6377,-32.4951 200.1906,-24.8407 62.2099,7.4926 114.4508,30.3549 155.3478,53.7876 40.1219,22.9885 63.4895,42.0716 63.4895,42.0716 0.015,4.0632 0.044,12.1872 0.044,12.1872 -94.9635,-69.1187 -182.2183,-96.6656 -270.6667,-94.7577 -87.6088,1.8897 -170.5602,32.3389 -258.0802,64.3422 -90.9344,33.2518 -173.5583,62.639 -276.3733,76.4271 -101.5466,13.618 -202.4985,8.8394 -318.2792,-9.3061 -112.1173,-17.5714 -230.9423,-46.7153 -344.9003,-70.0374 -118.6983,-24.2922 -219.9884,-39.7309 -319.3235,-42.726 -97.2651,-2.9327 -172.2547,7.0599 -229.6469,19.6976 -55.3667,12.1917 -86.0378,24.1571 -86.0378,24.1571 z m -1.4977,19.6976 c 125.3495,-43.5423 256.1089,-52.5957 396.3288,-39.9672 137.7497,12.4061 275.9938,44.9689 405.4532,72.6109 134.1648,28.6466 245.201,48.7706 357.2309,51.1687 110.2844,2.3606 200.4184,-13.3774 288.964,-39.3254 86.056,-25.2183 163.3603,-57.7216 235.7347,-79.2795 74.5485,-22.2056 137.6422,-31.1964 201.4205,-24.1221 62.4185,6.9235 114.5923,28.5053 155.4131,50.7178 40.0067,21.7695 63.2815,39.9163 63.2815,39.9163 0.015,4.0631 0.044,12.187 0.044,12.187 -94.5622,-65.3985 -181.8613,-91.1235 -270.7787,-88.9795 -88.0385,2.1227 -171.8541,31.2314 -260.2253,61.39 -91.7957,31.3272 -175.3392,58.6583 -278.7778,70.7518 -102.2175,11.9507 -203.4896,6.2253 -319.3446,-12.1152 -112.6622,-17.8352 -230.4301,-46.2477 -344.2603,-68.7283 -118.1294,-23.3297 -219.1095,-37.7045 -317.7581,-39.6945 -96.6565,-1.9499 -171.2534,8.7504 -228.2389,21.8421 -55.0177,12.6397 -85.4875,24.7881 -85.4875,24.7881 z m -2.1889,28.7892 c 124.0779,-44.6123 253.6055,-55.5957 392.6116,-44.9963 136.7369,10.4263 273.7744,41.0486 402.968,67.9261 133.9562,27.8684 244.6782,48.2686 357.5195,52.2764 110.9363,3.9401 202.0058,-9.2286 291.8036,-32.3731 87.2397,-22.4851 165.8231,-52.2948 239.1946,-72.3438 75.6262,-20.6652 139.2749,-29.3912 203.4452,-23.2847 62.7785,5.9741 114.8658,25.5363 155.5875,45.8357 39.843,19.8614 62.9816,36.5487 62.9816,36.5487 0.015,4.0632 0.044,12.1871 0.044,12.1871 -93.9759,-59.6276 -181.3806,-82.4666 -271.0728,-79.8418 -88.743,2.5971 -173.9549,29.7864 -263.6737,57.248 -93.151,28.5122 -178.1706,52.8044 -282.5661,62.3909 -103.2578,9.482 -205.0222,2.3518 -320.9596,-16.2937 -112.7155,-18.1273 -230.035,-45.6928 -343.1522,-66.8946 -117.2185,-21.9705 -217.6327,-34.843 -315.1905,-35.4621 -95.6712,-0.6072 -169.6161,11.024 -225.9474,24.6836 -54.449,13.2031 -84.5938,25.5546 -84.5938,25.5546 z m -2.4917,32.7705 c 122.4547,-45.4708 250.3921,-58.4044 387.8372,-49.9388 135.3884,8.3389 270.9382,36.852 399.7163,62.9125 133.664,27.0492 243.9158,47.7783 357.7522,53.663 111.7081,5.7747 203.9365,-4.4404 295.2805,-24.3767 88.7079,-19.361 168.8925,-46.118 243.5256,-64.522 77.0055,-18.9891 141.3413,-27.5357 206.0505,-22.7147 63.2663,4.7135 115.2688,21.7707 155.8992,39.716 39.6661,17.5194 62.651,32.4246 62.651,32.4246 0.015,4.0632 0.044,12.1871 0.044,12.1871 -93.3202,-52.6215 -180.9008,-71.8574 -271.5949,-68.4634 -89.6396,3.3545 -176.6281,28.4703 -268.0045,52.9114 -94.8075,25.3589 -181.69,46.1849 -287.2205,52.9005 -104.5107,6.6508 -206.8689,-2.1091 -322.8595,-21.149 -112.7425,-18.5068 -229.465,-45.172 -341.6608,-65.0149 -116.0798,-20.5299 -215.7028,-31.8039 -311.9089,-31.0281 -94.4279,0.7613 -167.532,13.2912 -223.0439,27.4544 -53.7276,13.708 -83.4639,26.1992 -83.4639,26.1992 z m -2.2522,29.6211 c 120.8544,-45.9205 247.209,-60.3635 383.1031,-53.623 134.0171,6.6474 268.129,33.3959 396.4401,58.8063 133.3674,26.4117 243.0724,47.4686 357.8735,55.0883 112.4208,7.4617 205.7721,-0.086 298.602,-17.1515 90.1264,-16.5683 171.8713,-40.6323 247.7449,-57.6578 78.3861,-17.5893 143.3628,-26.1105 208.6494,-22.6307 63.7766,3.3994 115.71,18.014 156.2831,33.6828 39.5179,15.2612 62.3673,28.4575 62.3673,28.4575 0.015,4.0632 0.044,12.1871 0.044,12.1871 -92.7511,-45.9406 -180.5363,-61.6358 -272.2368,-57.3166 -90.514,4.2633 -179.2817,27.6658 -272.2361,49.4765 -96.3815,22.6148 -185.1026,40.3462 -291.6798,44.4809 -105.6855,4.1 -208.6108,-6.1612 -324.608,-25.6213 -112.0955,-18.8055 -228.0296,-44.8008 -340.1252,-63.6063 -114.9721,-19.366 -213.7626,-29.3353 -308.6652,-27.4756 -93.2121,1.8266 -165.4814,15.0095 -220.1974,29.4936 -53.0203,14.0353 -82.3593,26.5709 -82.3593,26.5709 z m -1.9449,25.5805 c 119.3937,-46.0636 244.2919,-61.5966 378.7597,-56.1582 132.7378,5.3685 265.5477,30.7416 393.3947,55.6891 133.1005,25.9728 242.2262,47.3485 357.9093,56.4944 113.0373,8.9368 207.4082,3.6671 301.5702,-10.9757 90.2843,-14.0398 175.5967,-36.2586 251.576,-51.9959 79.68,-16.5039 145.1915,-25.1252 211.0542,-22.9487 64.2694,2.1237 116.1434,14.5027 156.6913,28.1027 39.4015,13.2154 62.1381,24.8711 62.1381,24.8711 0.015,4.0632 0.044,12.1871 0.044,12.1871 -92.2888,-39.9478 -180.2797,-52.3761 -272.9191,-47.0619 -91.2916,5.2368 -181.7458,27.3308 -276.0883,46.9876 -97.7787,20.3727 -188.1924,35.4963 -295.6736,37.4359 -106.715,1.9257 -210.1545,-9.6542 -326.1215,-29.541 -112.7072,-19.3278 -228.2463,-44.7662 -338.6747,-62.6899 -113.9684,-18.4982 -211.9636,-27.4772 -305.6944,-24.8353 -92.1076,2.5961 -163.6114,16.2127 -217.6086,30.8692 -52.3775,14.2169 -81.3579,26.7305 -81.3579,26.7305 z m -2.3064,30.3341 c 117.5969,-45.9462 240.6887,-62.4913 373.3863,-58.3325 131.1328,4.1098 262.343,28.079 389.5771,52.6341 132.7872,25.6267 241.0831,47.4394 357.8682,58.4265 113.7555,10.7021 209.3867,8.0767 305.1624,-3.8058 92.608,-11.4896 178.148,-30.9336 256.2858,-45.7358 81.3465,-15.4101 147.4048,-24.3141 214.0655,-23.8688 64.9164,0.4337 116.7099,10.0237 157.2647,21.0608 39.2813,10.6904 61.891,20.4555 61.891,20.4555 0.015,4.0632 0.044,12.1872 0.044,12.1872 -91.7905,-32.6282 -180.0505,-40.9426 -273.8791,-34.189 -92.1791,6.6349 -184.8905,27.449 -280.8369,44.7405 -99.4575,17.9244 -191.9809,30.0774 -300.5175,29.4834 -107.9304,-0.5906 -212.0128,-13.7625 -327.8947,-34.2507 -112.645,-19.916 -227.4578,-44.9142 -336.8298,-62.0592 -112.7381,-17.6727 -209.7147,-25.677 -302.0215,-22.3151 -90.753,3.3053 -161.311,17.2701 -214.4325,32.0033 -51.59,14.3086 -80.1336,26.7268 -80.1336,26.7268 z m -1.3531,17.7961 c 116.5241,-45.7364 238.5289,-62.7234 370.1605,-59.1644 130.159,3.5192 260.4105,26.802 387.2584,51.223 132.6102,25.5303 240.3455,47.6363 357.8015,59.7183 114.1639,11.7433 210.5563,10.6277 307.2843,0.2877 93.8494,-10.0323 179.8147,-28.0281 259.1058,-42.3536 82.4036,-14.8878 148.6918,-24.0458 215.8967,-24.7158 65.3288,-0.6513 117.0632,7.2405 157.6455,16.725 39.2212,9.1664 61.7607,17.7968 61.7607,17.7968 0.015,4.0632 0.044,12.1871 0.044,12.1871 -91.5312,-28.2522 -179.9555,-34.0384 -274.517,-26.2983 -92.62,7.5812 -186.8887,27.8202 -283.6871,43.8371 -100.4438,16.62 -194.2431,27.1125 -303.384,25.0802 -108.6294,-2.0228 -213.1081,-16.1437 -328.912,-37.0412 -112.5945,-20.3184 -226.9622,-45.1599 -335.6958,-61.963 -112.0041,-17.3086 -208.3526,-24.8581 -299.8164,-21.1886 -89.9455,3.6086 -159.9366,17.6895 -212.5392,32.4029 -51.1214,14.2991 -79.4065,26.6278 -79.4065,26.6278 z m -3.1965,42.0405 c 113.9895,-44.8457 233.3971,-62.3928 362.4773,-59.7429 127.8108,2.6238 255.7708,24.7723 381.6466,49.2236 132.2069,25.681 238.4442,48.6225 357.5177,63.327 115.0653,14.2094 213.3035,16.4912 312.2531,9.4931 96.5487,-6.8283 184.0145,-21.9185 265.8287,-35.4484 85.273,-14.102 151.4762,-24.107 220.3508,-27.7412 66.4096,-3.5041 117.9296,0.2272 158.6697,5.9235 39.1174,5.4693 61.5061,11.3712 61.5061,11.3712 0.015,4.0632 0.044,12.1871 0.044,12.1871 -91.0509,-17.773 -179.8471,-17.2796 -276.2371,-6.7503 -94.479,10.3205 -190.8634,29.5435 -290.5056,43.1428 -102.7456,14.0228 -199.6079,20.9149 -310.1123,15.6732 -110.1974,-5.2272 -215.6756,-21.6381 -331.2018,-43.6993 -116.6979,-22.2849 -221.3359,-45.6364 -332.9102,-62.7038 -110.2654,-16.8671 -205.0678,-23.7459 -294.5577,-19.7235 -88.038,3.957 -156.6814,18.0381 -208.0699,32.5135 -50.0189,14.0896 -77.7,26.1154 -77.7,26.1154 z m -2.0579,27.066 c 112.3999,-43.9945 230.1519,-61.5157 357.6018,-59.0259 126.2995,2.4675 252.7903,24.3112 378.0096,49.0886 131.9187,26.103 237.1684,49.7263 357.2406,66.1338 115.5809,15.7938 215.0269,20.1017 315.3532,14.9727 98.1455,-5.0176 186.7942,-18.6493 270.1201,-31.9833 87.7164,-14.0367 152.6955,-24.6919 223.266,-30.541 67.2024,-5.5699 118.4786,-4.595 159.418,-1.4119 39.0835,3.0388 61.3888,7.17 61.3888,7.17 0.015,4.0631 0.044,12.187 0.044,12.187 -90.8749,-10.9955 -179.8555,-6.2596 -277.4978,6.4391 -95.5673,12.4289 -193.6092,31.5081 -294.8783,43.9318 -104.1849,12.7814 -203.0007,17.6592 -314.3231,10.526 -111.1155,-7.12 -217.2837,-25.0442 -332.5559,-48.0237 -116.2973,-23.1839 -220.7626,-46.9022 -331.0722,-64.023 -109.1668,-16.9434 -202.9489,-23.735 -291.2112,-19.7905 -86.8399,3.8809 -154.6295,17.7477 -205.2658,31.9281 -49.3308,13.8148 -76.6384,25.5832 -76.6384,25.5832 z m -1.2808,16.8452 c 111.4449,-43.362 228.1891,-60.7038 354.6447,-58.1262 125.374,2.5556 250.9635,24.4036 375.7679,49.525 131.6918,26.5077 236.4011,50.6356 357.0306,68.1 115.8698,16.7753 216.0668,22.266 317.2161,18.1649 99.0863,-4.0175 188.5153,-16.9228 272.7421,-30.2854 89.8854,-14.2603 152.7882,-25.2368 225.0792,-32.6566 67.7474,-6.9535 118.7975,-7.7074 159.9174,-6.1132 39.0771,1.515 61.3371,4.5479 61.3371,4.5479 0.015,4.0632 0.044,12.1871 0.044,12.1871 -90.8375,-6.7946 -179.8832,0.6453 -278.3407,14.8567 -96.246,13.8921 -195.3029,33.0962 -297.5598,44.9784 -105.0553,12.2075 -205.0556,15.9789 -316.8589,7.7511 -111.6409,-8.2158 -218.252,-27.0979 -333.3365,-50.7256 -116.1237,-23.841 -220.306,-47.8966 -329.925,-65.2267 -108.5015,-17.1534 -201.6475,-24.045 -289.1755,-20.2804 -86.1185,3.7039 -153.3904,17.3486 -203.5789,31.2898 -48.9187,13.5884 -76.0043,25.1743 -76.0043,25.1743 z m -2.7628,36.3359 c 109.5211,-41.7496 224.1915,-58.2518 348.5959,-54.9472 123.4559,3.2794 247.1648,25.7087 371.0726,51.9906 130.9286,27.771 234.9935,53.2876 356.479,72.9856 116.3969,18.873 218.1815,26.6716 320.9883,24.3747 100.9679,-2.2559 192.1204,-14.1258 278.1817,-28.0022 85.1113,-13.7233 162.4462,-28.453 228.9351,-38.2863 69.1273,-10.2236 119.3397,-14.6708 161.0773,-16.5681 39.1062,-1.7776 61.289,-1.0797 61.289,-1.0797 0.015,4.0632 0.044,12.1871 0.044,12.1871 -91.0264,2.1548 -179.9492,15.5316 -280.305,33.477 -99.8341,17.8521 -196.7704,37.348 -303.1519,48.8577 -106.8441,11.5597 -209.2567,13.4005 -322.0114,3.0617 -112.6373,-10.328 -220.2079,-31.3168 -334.8196,-56.5685 -115.8911,-25.5336 -219.1316,-50.664 -327.4797,-68.9499 -107.1407,-18.0822 -198.9349,-25.6365 -284.9894,-22.6308 -84.6581,2.957 -150.8711,15.881 -200.1694,29.1623 -48.0919,12.9563 -74.737,24.0971 -74.737,24.0971 z m -2.3696,31.1662 c 108.0749,-40.1221 221.1262,-55.3826 343.9221,-50.8121 121.9428,4.5387 244.1427,28.1673 367.2977,55.9599 129.8212,29.297 234.246,56.4504 355.8982,77.9628 116.7334,20.6426 219.7999,30.1077 323.8694,28.8381 102.3994,-1.2492 195.0025,-12.8846 282.5035,-27.7615 86.4798,-14.7031 164.9328,-31.644 232.1188,-44.3823 70.703,-13.4052 119.4563,-20.8349 162.1567,-25.8264 39.1814,-4.5802 61.326,-5.8175 61.326,-5.8175 0.015,4.0632 0.044,12.1871 0.044,12.1871 -91.6557,9.6541 -179.8722,28.1075 -282.1408,49.8506 -100.6403,21.3969 -200.0555,42.4931 -307.6341,54.1511 -108.2516,11.731 -212.5091,12.4991 -325.9688,0.6616 -113.3337,-11.8243 -221.6727,-34.6575 -335.8269,-61.5817 -115.8398,-27.3216 -217.9432,-53.7999 -325.4601,-73.5202 -106.0866,-19.4581 -196.7711,-28.1186 -281.722,-26.2001 -83.5487,1.8869 -148.9425,13.9204 -197.5868,26.4813 -47.4745,12.2588 -73.7975,22.9703 -73.7975,22.9703 z"
       style="display:inline;fill:#58256a;fill-opacity:1;stroke:none;stroke-width:9.15882"
       mask="url(#mask4)" />
  </g>
</svg>
