<?xml version="1.0" encoding="UTF-8" standalone="no"?>
<!-- Created with Inkscape (http://www.inkscape.org/) -->

<svg
   width="4096.0005"
   height="1429.7419"
   viewBox="0 0 1083.7335 378.28588"
   version="1.1"
   id="svg1"
   xml:space="preserve"
   xmlns="http://www.w3.org/2000/svg"
   xmlns:svg="http://www.w3.org/2000/svg"
   xmlns:rdf="http://www.w3.org/1999/02/22-rdf-syntax-ns#"
   xmlns:cc="http://creativecommons.org/ns#"><defs
     id="defs1" /><g
     id="layer2"
     transform="translate(2.2143554e-5,-352.72369)"><rect
       style="fill:#700000;fill-opacity:1;stroke:none;stroke-width:0.31335;stroke-linecap:round;stroke-linejoin:round"
       id="rect2"
       width="1083.7334"
       height="378.28589"
       x="-2.2143555e-05"
       y="352.72366" /></g><g
     id="layer1"
     transform="matrix(0.95996174,0,0,0.95996174,30.420961,-355.23342)"><path
       style="font-weight:bold;font-size:102.295px;line-height:0.75;font-family:Georgia;-inkscape-font-specification:'Georgia, Bold';letter-spacing:0px;word-spacing:0px;fill:#f9f9f9;stroke-width:1.03298;stroke-linecap:round;stroke-linejoin:round"
       d="m 134.95562,626.99612 -0.38938,35.15634 -104.495166,0.59086 v -6.12809 c 1.833187,-0.15713 3.980638,-0.39284 6.442354,-0.7071 2.461716,-0.36661 4.085388,-0.70708 4.87104,-1.02133 1.885567,-0.73329 3.194975,-1.75465 3.928256,-3.06405 0.733281,-1.30942 1.099928,-2.98548 1.099928,-5.02819 v -78.64381 c 0,-1.88558 -0.288081,-3.43071 -0.864229,-4.63537 -0.576138,-1.25704 -1.964134,-2.38313 -4.163955,-3.37829 -1.623673,-0.73328 -3.587807,-1.30943 -5.892402,-1.72843 -2.252191,-0.47139 -4.059193,-0.81186 -5.420992,-1.02136 v -6.1281 h 61.202247 v 6.1281 c -1.676054,0.15712 -3.666364,0.39283 -5.97094,0.70709 -2.252195,0.26187 -4.216328,0.6547 -5.892372,1.17847 -2.042686,0.6809 -3.404462,1.75464 -4.085362,3.22118 -0.6809,1.41418 -1.021333,3.03785 -1.021333,4.87104 v 73.3014 c 0,3.45687 0.235688,6.18045 0.707065,8.17078 0.471392,1.99031 1.387979,3.45689 2.749776,4.39966 1.361799,0.99516 3.247342,1.64988 5.656674,1.96413 2.461696,0.26188 5.839982,0.39281 10.134881,0.39281 4.190132,0 8.24935,-0.23568 12.17762,-0.70706 3.98064,-0.52377 5.82455,-1.0775 8.56362,-3.29976 2.73908,-2.22224 5.39481,-6.41616 8.17079,-11.23482 2.82833,-4.87105 4.87165,-8.97492 5.78174,-13.3561 z m 84.7719,-32.91883 c 3.87589,3.61398 6.83517,7.93507 8.87789,12.96325 2.0427,5.02819 3.06404,10.47538 3.06404,16.34158 0,5.81383 -1.02134,11.3134 -3.06404,16.4987 -1.99034,5.13293 -4.92344,9.53258 -8.79932,13.19897 -4.13778,3.92826 -9.08738,6.93993 -14.84883,9.03501 -5.70909,2.09507 -12.25618,3.14261 -19.64132,3.14261 -6.38998,0 -12.28239,-0.9166 -17.67719,-2.74979 -5.34244,-1.8332 -10.08256,-4.58297 -14.22032,-8.24934 -3.98063,-3.50927 -7.12323,-7.83036 -9.42782,-12.96328 -2.30458,-5.18531 -3.45687,-10.97296 -3.45687,-17.36291 0,-6.28523 0.99516,-11.86336 2.98548,-16.73441 2.0427,-4.92342 5.08055,-9.2969 9.11358,-13.12039 3.87588,-3.6664 8.64217,-6.49474 14.29888,-8.48506 5.70908,-2.0427 12.07284,-3.06404 19.09135,-3.06404 7.33275,0 13.7751,1.02134 19.32705,3.06404 5.60432,1.99032 10.39682,4.81866 14.37744,8.48506 z m -20.1127,54.44572 c 1.15229,-2.93311 1.99032,-6.49474 2.51408,-10.68489 0.57615,-4.19014 0.86422,-9.06118 0.86422,-14.61314 0,-3.66636 -0.26189,-7.85651 -0.78565,-12.57044 -0.52378,-4.71391 -1.30942,-8.43267 -2.35697,-11.15627 -1.25705,-3.29974 -3.01166,-5.89239 -5.26386,-7.77794 -2.19984,-1.88558 -5.00199,-2.82837 -8.40649,-2.82837 -3.71875,0 -6.70422,1.02135 -8.95642,3.06405 -2.19985,2.04271 -3.9021,4.68774 -5.10676,7.9351 -1.09991,2.98548 -1.85938,6.49471 -2.27839,10.52773 -0.419,3.98065 -0.62851,8.1446 -0.62851,12.49188 0,5.70906 0.18331,10.44918 0.54995,14.22032 0.36663,3.71875 1.25704,7.4637 2.67123,11.23483 1.20466,3.24737 2.93309,5.81384 5.18529,7.69942 2.25221,1.88554 5.10676,2.82833 8.56361,2.82833 3.14261,0 5.84003,-0.86422 8.09222,-2.59266 2.25222,-1.78081 4.03304,-4.37346 5.34245,-7.77795 z M 335.5327,624.3249 c 0,11.78479 -3.90207,21.55307 -11.70622,29.30484 -7.75177,7.75177 -17.59861,11.62767 -29.54053,11.62767 -4.60916,0 -8.58981,-0.34047 -11.94193,-1.02137 -3.29974,-0.62852 -6.1019,-1.41415 -8.40647,-2.35695 -2.40933,-0.99516 -4.34728,-1.96411 -5.81384,-2.9069 -1.41417,-0.99517 -2.54025,-1.80701 -3.3783,-2.43553 l -11.23482,10.21348 -4.63535,-1.807 c 0.26188,-3.82351 0.47138,-7.96127 0.62852,-12.41331 0.2095,-4.50441 0.31425,-10.55393 0.31425,-18.14857 v -73.53708 c 0,-1.99032 -0.41901,-3.82352 -1.25705,-5.49958 -0.78565,-1.72842 -1.85937,-3.03785 -3.22116,-3.92827 -0.99516,-0.62851 -2.46172,-1.17846 -4.39967,-1.64985 -1.88557,-0.47139 -3.64019,-0.75947 -5.26386,-0.86424 v -5.73526 l 38.81123,-2.04268 1.17848,1.25703 v 51.06742 h 0.47139 c 3.8235,-3.71875 7.75179,-6.44235 11.7848,-8.17078 4.03301,-1.72844 8.06604,-2.59265 12.09905,-2.59265 10.99912,0 19.6675,3.74493 26.0051,11.23482 6.33757,7.4899 9.50638,17.62482 9.50638,30.40476 z m -28.20493,0.94278 c 0,-3.98064 -0.31424,-7.80415 -0.94276,-11.47053 -0.57614,-3.71875 -1.57132,-6.99231 -2.9855,-9.82064 -1.41417,-2.82836 -3.27354,-5.08057 -5.57813,-6.75662 -2.30458,-1.72844 -5.1591,-2.59266 -8.56362,-2.59266 -3.19498,0 -5.84001,0.52377 -7.93507,1.5713 -2.09509,1.04755 -3.98065,2.59267 -5.65671,4.63537 v 45.72497 c 0.31426,1.04755 0.8904,2.43553 1.72842,4.16396 0.89042,1.67605 1.78082,2.98548 2.67124,3.92827 1.25705,1.36179 2.59264,2.40933 4.00683,3.14261 1.41416,0.68089 3.40449,1.02134 5.97096,1.02134 5.34243,0 9.55877,-2.90693 12.64901,-8.72077 3.09023,-5.86617 4.63533,-14.14173 4.63533,-24.8266 z m 74.7156,40.14685 c -5.08056,0 -10.05636,-0.75946 -14.92741,-2.2784 -4.81867,-1.46653 -8.56362,-3.03785 -11.23483,-4.7139 l -2.35696,5.34243 h -6.12809 l -1.02134,-29.30483 h 5.73525 c 0.78565,2.35695 2.09508,5.02817 3.92826,8.01365 1.8332,2.93311 3.92826,5.57815 6.28523,7.93509 2.46171,2.35696 5.26387,4.34728 8.40648,5.97096 3.195,1.62367 6.59947,2.43552 10.2135,2.43552 4.76628,0 8.30171,-0.91659 10.6063,-2.74976 2.35695,-1.88558 3.53544,-4.76633 3.53544,-8.6422 0,-2.09509 -0.52377,-3.82351 -1.57131,-5.1853 -1.04754,-1.36182 -2.4879,-2.54028 -4.3211,-3.53544 -2.0427,-1.04754 -4.29489,-1.93795 -6.75661,-2.67123 -2.40933,-0.73328 -5.39482,-1.62367 -8.95643,-2.67122 -3.56164,-1.04754 -6.62568,-2.09507 -9.19214,-3.14262 -2.51409,-1.0999 -5.13293,-2.80214 -7.85653,-5.10672 -2.35695,-2.0427 -4.24253,-4.50442 -5.65671,-7.38515 -1.41415,-2.8807 -2.12124,-6.31141 -2.12124,-10.29205 0,-7.38513 3.09022,-13.35607 9.2707,-17.91288 6.23284,-4.55678 14.37744,-6.83516 24.43378,-6.83516 4.7663,0 9.13978,0.49756 13.12041,1.49274 4.03301,0.94278 7.41132,1.99032 10.13493,3.1426 l 1.64985,-4.63534 h 5.97095 l 1.25706,26.79075 h -5.57815 c -1.83317,-5.44719 -4.97577,-10.13492 -9.42781,-14.06318 -4.45203,-3.98064 -9.24453,-5.97097 -14.37745,-5.97097 -4.03302,0 -7.20181,0.83803 -9.5064,2.51409 -2.30459,1.67605 -3.45687,4.00684 -3.45687,6.99231 0,3.98063 1.67605,6.86137 5.02819,8.64218 3.40448,1.78081 8.14457,3.45688 14.22031,5.02819 9.37546,2.40933 16.23681,5.70906 20.58409,9.89921 4.34727,4.13776 6.52092,9.42785 6.52092,15.87018 0,8.58979 -3.37831,15.24164 -10.13492,19.95558 -6.70425,4.71392 -15.47735,7.07087 -26.31935,7.07087 z m 104.57035,-6.28522 c -3.35211,1.46654 -6.93993,2.77597 -10.76344,3.92827 -3.8235,1.20466 -8.48505,1.80699 -13.98461,1.80699 -8.17079,0 -14.24651,-1.99033 -18.22715,-5.97095 -3.92825,-3.98064 -5.89239,-9.66352 -5.89239,-17.04867 v -48.23907 h -14.14174 v -8.48505 h 14.456 v -23.80527 h 25.53372 v 23.80527 h 21.99825 v 8.48505 h -21.84112 v 43.05377 c 0,6.12809 0.83804,10.47536 2.51409,13.04183 1.72843,2.56647 4.79247,3.8497 9.19213,3.8497 1.41417,0 3.37829,-0.10476 5.89238,-0.31426 2.5141,-0.20951 4.26872,-0.44521 5.26388,-0.70709 z m 89.95722,-15.16309 c -1.83318,2.98547 -4.0592,5.81383 -6.67805,8.48505 -2.56647,2.61882 -5.49955,4.87105 -8.79931,6.75662 -3.50924,1.99032 -7.07086,3.48305 -10.68486,4.4782 -3.56163,1.04755 -7.67322,1.57132 -12.33477,1.57132 -7.75176,0 -14.45599,-1.09991 -20.11269,-3.29976 -5.60433,-2.19982 -10.23967,-5.15911 -13.90606,-8.87786 -3.66638,-3.71876 -6.41615,-8.09222 -8.24934,-13.12039 -1.78082,-5.08057 -2.67123,-10.58012 -2.67123,-16.49873 0,-5.34243 0.96897,-10.44917 2.90691,-15.3202 1.99032,-4.92344 4.79249,-9.29689 8.4065,-13.12042 3.56162,-3.71875 8.03984,-6.73041 13.43465,-9.03499 5.4472,-2.30458 11.52291,-3.45687 18.22715,-3.45687 7.33277,0 13.35608,0.8904 18.07,2.67119 4.71393,1.78083 8.61598,4.24254 11.70622,7.38515 2.98548,2.98548 5.15914,6.52092 6.52093,10.60631 1.3618,4.03301 2.0427,8.27556 2.0427,12.72759 v 5.10673 h -53.11012 c 0,10.73725 2.06888,18.90805 6.20665,24.51236 4.13776,5.60433 10.71106,8.40648 19.71988,8.40648 4.92343,0 9.34928,-1.3356 13.27752,-4.00681 3.92828,-2.72361 7.2804,-6.1543 10.05636,-10.29206 z m -30.01192,-29.85479 c 0,-3.14262 -0.15713,-6.3638 -0.47141,-9.66354 -0.31426,-3.29975 -0.86421,-5.99716 -1.64987,-8.09223 -0.89041,-2.46171 -2.12125,-4.32109 -3.69255,-5.57812 -1.51893,-1.25706 -3.45687,-1.88558 -5.81384,-1.88558 -4.03302,0 -7.2542,2.0427 -9.66352,6.12809 -2.40935,4.08539 -3.71876,10.55394 -3.92826,19.40563 z m 74.95124,35.59005 c 0,4.13776 -1.5451,7.72559 -4.63534,10.76345 -3.03785,3.03786 -6.65187,4.55678 -10.84201,4.55678 -4.24252,0 -7.90889,-1.49275 -10.99914,-4.47822 -3.03784,-3.03786 -4.55679,-6.65186 -4.55679,-10.84201 0,-4.19014 1.51895,-7.80415 4.55679,-10.842 3.09025,-3.09024 6.75662,-4.63534 10.99914,-4.63534 4.19014,0 7.80416,1.5451 10.84201,4.63534 3.09024,3.09024 4.63534,6.70423 4.63534,10.842 z m 93.6498,-50.51746 c 0,3.98064 -1.23084,7.48989 -3.69256,10.52775 -2.46171,2.98547 -5.70909,4.4782 -9.74209,4.4782 -3.82351,0 -7.07087,-0.96896 -9.74209,-2.9069 -2.61885,-1.93795 -3.92827,-4.79248 -3.92827,-8.56362 0,-1.83318 0.13103,-3.24736 0.39284,-4.24252 0.26188,-1.04754 0.49758,-2.01651 0.70708,-2.9069 -2.40935,0.10476 -4.94962,0.94278 -7.62083,2.51407 -2.67122,1.57131 -5.02817,3.66639 -7.07088,6.28523 v 43.13233 c 0,1.83319 0.28808,3.35211 0.86422,4.55677 0.57615,1.20467 1.54511,2.14746 2.90692,2.82837 1.15229,0.57615 3.01165,1.07371 5.57812,1.49273 2.61886,0.36661 4.50442,0.57614 5.65672,0.62851 v 5.73528 h -52.56017 v -5.73528 c 1.30942,-0.10476 2.61885,-0.2357 3.92827,-0.39282 1.36178,-0.20952 2.51407,-0.47141 3.45688,-0.78567 1.67604,-0.57613 2.82832,-1.46655 3.45685,-2.67121 0.62853,-1.20468 0.94279,-2.77599 0.94279,-4.71391 v -45.725 c 0,-1.88555 -0.4452,-3.56161 -1.33562,-5.02817 -0.89041,-1.51892 -1.96413,-2.72358 -3.22118,-3.61401 -0.94277,-0.62851 -2.14743,-1.15229 -3.61399,-1.57129 -1.41416,-0.41903 -2.98548,-0.7071 -4.71391,-0.86422 v -5.73526 l 37.47562,-2.04271 1.17848,1.17849 v 11.39197 h 0.31427 c 3.61401,-4.19014 7.43751,-7.4637 11.47052,-9.82067 4.08539,-2.40933 8.32792,-3.61398 12.72759,-3.61398 4.87103,0 8.77312,1.51891 11.70621,4.55677 2.98548,2.98549 4.47821,6.86135 4.47821,11.62767 z m 41.79675,66.23051 c -5.08055,0 -10.05636,-0.75946 -14.92741,-2.2784 -4.81867,-1.46653 -8.56362,-3.03785 -11.23483,-4.7139 l -2.35696,5.34243 h -6.12808 l -1.02136,-29.30483 h 5.73526 c 0.78567,2.35695 2.09509,5.02817 3.92827,8.01365 1.83319,2.93311 3.92826,5.57815 6.28521,7.93509 2.46172,2.35696 5.26388,4.34728 8.40649,5.97096 3.195,1.62367 6.59949,2.43552 10.21347,2.43552 4.76632,0 8.30174,-0.91659 10.60633,-2.74976 2.35696,-1.88558 3.53543,-4.76633 3.53543,-8.6422 0,-2.09509 -0.52376,-3.82351 -1.5713,-5.1853 -1.04754,-1.36182 -2.4879,-2.54028 -4.32109,-3.53544 -2.04271,-1.04754 -4.2949,-1.93795 -6.75661,-2.67123 -2.40934,-0.73328 -5.39481,-1.62367 -8.95645,-2.67122 -3.56162,-1.04754 -6.62567,-2.09507 -9.19212,-3.14262 -2.51409,-1.0999 -5.13294,-2.80214 -7.85654,-5.10672 -2.35695,-2.0427 -4.24252,-4.50442 -5.6567,-7.38515 -1.41416,-2.8807 -2.12127,-6.31141 -2.12127,-10.29205 0,-7.38513 3.09025,-13.35607 9.27072,-17.91288 6.23283,-4.55678 14.37743,-6.83516 24.43379,-6.83516 4.76629,0 9.13976,0.49756 13.12041,1.49274 4.033,0.94278 7.41133,1.99032 10.13491,3.1426 l 1.64988,-4.63534 h 5.97096 l 1.25704,26.79075 h -5.57814 c -1.83319,-5.44719 -4.97579,-10.13492 -9.42783,-14.06318 -4.45204,-3.98064 -9.24452,-5.97097 -14.37743,-5.97097 -4.03303,0 -7.20184,0.83803 -9.50641,2.51409 -2.30458,1.67605 -3.45687,4.00684 -3.45687,6.99231 0,3.98063 1.67606,6.86137 5.02816,8.64218 3.40452,1.78081 8.14461,3.45688 14.22033,5.02819 9.37545,2.40933 16.23681,5.70906 20.5841,9.89921 4.34726,4.13776 6.52092,9.42785 6.52092,15.87018 0,8.58979 -3.37831,15.24164 -10.13492,19.95558 -6.70423,4.71392 -15.47736,7.07087 -26.31936,7.07087 z"
       id="text1"
       aria-label="Lobste.rs" /><text
       xml:space="preserve"
       style="font-style:normal;font-variant:normal;font-weight:bold;font-stretch:normal;font-size:241.836px;line-height:0.75;font-family:Georgia;-inkscape-font-specification:'Georgia, Bold';font-variant-ligatures:normal;font-variant-caps:normal;font-variant-numeric:normal;font-variant-east-asian:normal;text-decoration-color:#000000;letter-spacing:0px;word-spacing:0px;writing-mode:lr-tb;direction:ltr;fill:#f9f9f9;stroke:none;stroke-width:0.625502;stroke-linecap:round;stroke-linejoin:round"
       x="749.83813"
       y="651.80658"
       id="text2"><tspan
         id="tspan1"
         style="fill:#f9f9f9;stroke-width:0.625502"
         x="749.83813"
         y="651.80658">🦞</tspan></text></g><metadata
     id="metadata2"><rdf:RDF><cc:Work
         rdf:about=""><cc:license
           rdf:resource="http://creativecommons.org/licenses/by-nc-sa/4.0/" /></cc:Work><cc:License
         rdf:about="http://creativecommons.org/licenses/by-nc-sa/4.0/"><cc:permits
           rdf:resource="http://creativecommons.org/ns#Reproduction" /><cc:permits
           rdf:resource="http://creativecommons.org/ns#Distribution" /><cc:requires
           rdf:resource="http://creativecommons.org/ns#Notice" /><cc:requires
           rdf:resource="http://creativecommons.org/ns#Attribution" /><cc:prohibits
           rdf:resource="http://creativecommons.org/ns#CommercialUse" /><cc:permits
           rdf:resource="http://creativecommons.org/ns#DerivativeWorks" /><cc:requires
           rdf:resource="http://creativecommons.org/ns#ShareAlike" /></cc:License></rdf:RDF></metadata></svg>
